REM DIRINDEX 1\2,1\3,1\4,1\5
REM DIRNAME cjc044,folder01,folder02,folder03,folder04
TITLE ""
FILE "1800_095.mp3" MP3
  TRACK 01 AUDIO
    TITLE "2:cjc044_2589"
    INDEX 01 00:00:00
  TRACK 02 AUDIO
    TITLE "0:"
    INDEX 01 00:01:19
  TRACK 03 AUDIO
    TITLE "3:cjc044_2590"
    INDEX 01 00:02:06
  TRACK 04 AUDIO
    TITLE "0:"
    INDEX 01 00:03:29
  TRACK 05 AUDIO
    TITLE "4:cjc044_2591"
    INDEX 01 00:04:13
  TRACK 06 AUDIO
    TITLE "0:"
    INDEX 01 00:05:40
  TRACK 07 AUDIO
    TITLE "5:cjc044_2592"
    INDEX 01 00:06:10
  TRACK 08 AUDIO
    TITLE "0:"
    INDEX 01 00:08:58
  TRACK 09 AUDIO
    TITLE "2:cjc044_2593"
    INDEX 01 00:10:37
  TRACK 10 AUDIO
    TITLE "0:"
    INDEX 01 00:11:64
  TRACK 11 AUDIO
    TITLE "3:cjc044_2594"
    INDEX 01 00:12:50
  TRACK 12 AUDIO
    TITLE "0:"
    INDEX 01 00:13:61
  TRACK 13 AUDIO
    TITLE "4:cjc044_2595"
    INDEX 01 00:14:45
  TRACK 14 AUDIO
    TITLE "0:"
    INDEX 01 00:15:74
  TRACK 15 AUDIO
    TITLE "5:cjc044_2596"
    INDEX 01 00:16:55
  TRACK 16 AUDIO
    TITLE "0:"
    INDEX 01 00:20:37
  TRACK 17 AUDIO
    TITLE "2:cjc044_2597"
    INDEX 01 00:22:17
  TRACK 18 AUDIO
    TITLE "0:"
    INDEX 01 00:23:28
  TRACK 19 AUDIO
    TITLE "3:cjc044_2598"
    INDEX 01 00:24:12
  TRACK 20 AUDIO
    TITLE "0:"
    INDEX 01 00:25:37
  TRACK 21 AUDIO
    TITLE "4:cjc044_2599"
    INDEX 01 00:26:18
  TRACK 22 AUDIO
    TITLE "0:"
    INDEX 01 00:27:28
  TRACK 23 AUDIO
    TITLE "5:cjc044_2600"
    INDEX 01 00:28:04
  TRACK 24 AUDIO
    TITLE "0:"
    INDEX 01 00:31:29
  TRACK 25 AUDIO
    TITLE "2:cjc044_2601"
    INDEX 01 00:33:05
  TRACK 26 AUDIO
    TITLE "0:"
    INDEX 01 00:34:22
  TRACK 27 AUDIO
    TITLE "3:cjc044_2602"
    INDEX 01 00:35:04
  TRACK 28 AUDIO
    TITLE "0:"
    INDEX 01 00:36:13
  TRACK 29 AUDIO
    TITLE "4:cjc044_2603"
    INDEX 01 00:36:68
  TRACK 30 AUDIO
    TITLE "0:"
    INDEX 01 00:38:10
  TRACK 31 AUDIO
    TITLE "5:cjc044_2604"
    INDEX 01 00:38:69
  TRACK 32 AUDIO
    TITLE "0:"
    INDEX 01 00:42:55
  TRACK 33 AUDIO
    TITLE "2:cjc044_2605"
    INDEX 01 00:44:36
  TRACK 34 AUDIO
    TITLE "0:"
    INDEX 01 00:45:43
  TRACK 35 AUDIO
    TITLE "3:cjc044_2606"
    INDEX 01 00:46:31
  TRACK 36 AUDIO
    TITLE "0:"
    INDEX 01 00:47:34
  TRACK 37 AUDIO
    TITLE "4:cjc044_2607"
    INDEX 01 00:48:20
  TRACK 38 AUDIO
    TITLE "0:"
    INDEX 01 00:49:29
  TRACK 39 AUDIO
    TITLE "5:cjc044_2608"
    INDEX 01 00:50:05
  TRACK 40 AUDIO
    TITLE "0:"
    INDEX 01 00:52:67
  TRACK 41 AUDIO
    TITLE "2:cjc044_2609"
    INDEX 01 00:54:48
  TRACK 42 AUDIO
    TITLE "0:"
    INDEX 01 00:55:61
  TRACK 43 AUDIO
    TITLE "3:cjc044_2610"
    INDEX 01 00:56:39
  TRACK 44 AUDIO
    TITLE "0:"
    INDEX 01 00:58:40
  TRACK 45 AUDIO
    TITLE "4:cjc044_2611"
    INDEX 01 00:59:24
  TRACK 46 AUDIO
    TITLE "0:"
    INDEX 01 01:00:41
  TRACK 47 AUDIO
    TITLE "5:cjc044_2612"
    INDEX 01 01:01:13
  TRACK 48 AUDIO
    TITLE "0:"
    INDEX 01 01:04:19
  TRACK 49 AUDIO
    TITLE "2:cjc044_2613"
    INDEX 01 01:06:06
  TRACK 50 AUDIO
    TITLE "0:"
    INDEX 01 01:07:19
  TRACK 51 AUDIO
    TITLE "3:cjc044_2614"
    INDEX 01 01:08:05
  TRACK 52 AUDIO
    TITLE "0:"
    INDEX 01 01:10:73
  TRACK 53 AUDIO
    TITLE "4:cjc044_2615"
    INDEX 01 01:11:60
  TRACK 54 AUDIO
    TITLE "0:"
    INDEX 01 01:13:00
  TRACK 55 AUDIO
    TITLE "5:cjc044_2616"
    INDEX 01 01:13:49
  TRACK 56 AUDIO
    TITLE "0:"
    INDEX 01 01:17:08
  TRACK 57 AUDIO
    TITLE "2:cjc044_2617"
    INDEX 01 01:18:66
  TRACK 58 AUDIO
    TITLE "0:"
    INDEX 01 01:20:08
  TRACK 59 AUDIO
    TITLE "3:cjc044_2618"
    INDEX 01 01:20:71
  TRACK 60 AUDIO
    TITLE "0:"
    INDEX 01 01:21:61
  TRACK 61 AUDIO
    TITLE "4:cjc044_2619"
    INDEX 01 01:22:44
  TRACK 62 AUDIO
    TITLE "0:"
    INDEX 01 01:23:62
  TRACK 63 AUDIO
    TITLE "5:cjc044_2620"
    INDEX 01 01:24:30
  TRACK 64 AUDIO
    TITLE "0:"
    INDEX 01 01:27:04
